<?xml version="1.0" encoding="utf-8"?>
<!-- Generator: Adobe Illustrator 22.1.0, SVG Export Plug-In . SVG Version: 6.00 Build 0)  -->
<svg version="1.1" id="Layer_1" xmlns="http://www.w3.org/2000/svg" xmlns:xlink="http://www.w3.org/1999/xlink" x="0px" y="0px"
	 viewBox="0 0 60 60" style="enable-background:new 0 0 60 60;" xml:space="preserve">
<g>
	<path d="M57.205,28.859l-7-19.157c-0.107-0.296-0.389-0.493-0.704-0.493h-6.628c-0.414,0-0.75,0.336-0.75,0.75
		s0.336,0.75,0.75,0.75h6.104l6.452,17.657H39.12c-0.414,0-0.75,0.336-0.75,0.75s0.336,0.75,0.75,0.75H56.5
		c0.245,0,0.475-0.12,0.614-0.32C57.255,29.346,57.289,29.089,57.205,28.859z"/>
	<path d="M21.67,29.117c0-0.414-0.336-0.75-0.75-0.75H4.574l6.452-17.657h5.945c0.414,0,0.75-0.336,0.75-0.75s-0.336-0.75-0.75-0.75
		h-6.47c-0.315,0-0.596,0.197-0.705,0.493l-7,19.157c-0.084,0.23-0.05,0.486,0.09,0.687c0.141,0.201,0.37,0.32,0.615,0.32H20.92
		C21.334,29.867,21.67,29.531,21.67,29.117z"/>
	<path d="M48.249,31.896c-0.142-0.39-0.575-0.589-0.962-0.446c-0.389,0.142-0.589,0.572-0.446,0.962l4.732,12.951H41.77v-8.06
		c0-2.114-1.72-3.834-3.834-3.834h-7.184v-9.483l4.59,4.59c0.293,0.293,0.768,0.293,1.061,0s0.293-0.768,0-1.061l-5.87-5.871
		c-0.281-0.281-0.779-0.281-1.061,0l-5.871,5.871c-0.293,0.293-0.293,0.768,0,1.061c0.146,0.146,0.338,0.22,0.53,0.22
		s0.384-0.073,0.53-0.22l4.59-4.59v9.483h-7.024c-2.114,0-3.833,1.72-3.833,3.834v8.06H8.43l4.732-12.951
		c0.142-0.39-0.058-0.82-0.447-0.962c-0.389-0.144-0.82,0.058-0.962,0.446L6.652,45.855c-0.084,0.23-0.05,0.487,0.09,0.688
		c0.141,0.201,0.37,0.32,0.615,0.32h11.038v6.148c0,2.113,1.72,3.833,3.833,3.833h15.708c2.114,0,3.834-1.72,3.834-3.833v-6.148
		h10.875c0.245,0,0.475-0.119,0.614-0.32c0.141-0.2,0.174-0.457,0.09-0.688L48.249,31.896z M40.27,53.011
		c0,1.286-1.047,2.333-2.334,2.333H22.228c-1.287,0-2.333-1.047-2.333-2.333V37.303c0-1.287,1.047-2.334,2.333-2.334h15.708
		c1.287,0,2.334,1.047,2.334,2.334V53.011z"/>
	<path d="M28.72,40.156h-2l-3.5,10h2.2l0.6-1.7h3.5l0.6,1.7h2.2l-3.5-9.9L28.72,40.156z M26.72,46.356l1-3l1,3H26.72z"/>
	<rect x="33.42" y="40.156" width="2.1" height="10"/>
	<polygon points="33.429,13.079 33.429,12.694 38.727,18.667 42.196,18.667 34.97,10.478 42.196,3.445 38.727,3.445 33.429,8.551 
		33.429,3.445 30.924,3.445 30.924,18.667 33.429,18.667 	"/>
	<path d="M19.844,14.235c0,2.601,2.12,4.721,4.721,4.721s4.721-2.12,4.721-4.721c0-1.541-0.771-2.89-1.927-3.757
		c0.867-0.771,1.445-1.927,1.445-3.083c-0.096-2.312-1.927-4.239-4.239-4.239s-4.143,1.831-4.143,4.143
		c0,1.252,0.578,2.409,1.445,3.083C20.615,11.345,19.844,12.694,19.844,14.235z M24.565,5.468c1.06,0,1.831,0.867,1.831,1.831
		c0,1.06-0.867,1.831-1.831,1.831c-0.963,0-1.83-0.867-1.83-1.831S23.505,5.468,24.565,5.468z M24.565,11.923
		c1.252,0,2.312,1.06,2.312,2.312s-1.06,2.312-2.312,2.312s-2.312-1.06-2.312-2.312S23.313,11.923,24.565,11.923z"/>
</g>
</svg>
