<?xml version="1.0" encoding="utf-8"?>
<!-- Generator: Adobe Illustrator 22.1.0, SVG Export Plug-In . SVG Version: 6.00 Build 0)  -->
<svg version="1.1" id="Layer_1" xmlns="http://www.w3.org/2000/svg" xmlns:xlink="http://www.w3.org/1999/xlink" x="0px" y="0px"
	 viewBox="0 0 60 60" style="enable-background:new 0 0 60 60;" xml:space="preserve">
<style type="text/css">
	.st0{fill:none;}
</style>
<rect id="XMLID_586_" x="3" y="3.005" class="st0" width="54" height="54"/>
<g id="XMLID_58_">
	<path id="XMLID_329_" d="M49.063,3.005H10.938C6.572,3.005,3,6.577,3,10.942v38.125c0,4.365,3.572,7.937,7.938,7.937h38.125
		c4.366,0,7.938-3.572,7.938-7.937V10.942C57,6.577,53.428,3.005,49.063,3.005z M55.5,49.068c0,3.549-2.888,6.437-6.438,6.437
		H10.938c-3.55,0-6.438-2.888-6.438-6.437V10.942c0-3.55,2.888-6.438,6.438-6.438h38.125c3.55,0,6.438,2.888,6.438,6.438
		L55.5,49.068L55.5,49.068z"/>
	<path id="XMLID_393_" d="M12.47,31.189c-0.205-0.205-0.448-0.367-0.729-0.487c-0.281-0.12-0.589-0.18-0.922-0.18H8.621v6.416h1.195
		v-1.837h0.993c0.334,0,0.643-0.06,0.927-0.18s0.529-0.282,0.734-0.487c0.205-0.206,0.366-0.449,0.483-0.73s0.176-0.58,0.176-0.896
		c0-0.316-0.059-0.614-0.176-0.893C12.836,31.637,12.675,31.395,12.47,31.189z M11.837,33.269c-0.059,0.144-0.141,0.27-0.246,0.377
		c-0.105,0.109-0.231,0.194-0.378,0.255c-0.146,0.062-0.308,0.093-0.483,0.093H9.816v-2.365h0.914c0.176,0,0.337,0.031,0.483,0.093
		c0.146,0.061,0.272,0.145,0.378,0.25s0.188,0.23,0.246,0.374s0.088,0.297,0.088,0.461S11.896,33.125,11.837,33.269z"/>
	<path id="XMLID_395_" d="M16.701,31.857c-0.15-0.041-0.318-0.061-0.505-0.061c-0.639,0-1.078,0.255-1.318,0.764v-0.764H13.7v5.141
		h1.186v-2.742c0-0.445,0.089-0.766,0.269-0.962c0.178-0.196,0.44-0.294,0.786-0.294c0.17,0,0.309,0.019,0.417,0.057
		c0.108,0.039,0.207,0.087,0.294,0.146l0.448-1.125C16.984,31.951,16.851,31.898,16.701,31.857z"/>
	<path id="XMLID_429_" d="M21.429,32.537c-0.243-0.234-0.525-0.417-0.848-0.55s-0.668-0.2-1.037-0.2c-0.369,0-0.716,0.066-1.041,0.2
		c-0.326,0.132-0.608,0.316-0.849,0.55c-0.24,0.235-0.429,0.508-0.567,0.822c-0.138,0.313-0.207,0.65-0.207,1.012
		c0,0.356,0.069,0.69,0.207,1.004s0.327,0.587,0.567,0.821c0.241,0.235,0.523,0.418,0.849,0.551
		c0.325,0.133,0.672,0.199,1.041,0.199s0.714-0.066,1.037-0.199c0.322-0.133,0.604-0.316,0.848-0.551
		c0.243-0.234,0.434-0.508,0.571-0.821s0.207-0.648,0.207-1.004c0-0.362-0.069-0.699-0.207-1.012
		C21.863,33.045,21.672,32.771,21.429,32.537z M20.924,34.936c-0.077,0.179-0.182,0.334-0.316,0.465
		c-0.135,0.133-0.293,0.237-0.475,0.314c-0.181,0.076-0.377,0.115-0.588,0.115s-0.409-0.039-0.593-0.115
		c-0.185-0.078-0.343-0.182-0.474-0.314c-0.132-0.131-0.236-0.287-0.312-0.465c-0.077-0.178-0.115-0.367-0.115-0.564
		c0-0.203,0.038-0.395,0.115-0.573c0.076-0.178,0.18-0.334,0.312-0.466c0.131-0.132,0.29-0.236,0.474-0.313
		c0.185-0.076,0.382-0.115,0.593-0.115s0.407,0.039,0.588,0.115c0.182,0.077,0.34,0.182,0.475,0.313
		c0.134,0.132,0.24,0.288,0.316,0.466c0.076,0.179,0.114,0.37,0.114,0.573C21.038,34.568,21,34.757,20.924,34.936z"/>
	<path id="XMLID_430_" d="M25.275,36.946c0.298,0,0.577-0.039,0.835-0.116c0.257-0.078,0.49-0.187,0.699-0.328
		c0.208-0.141,0.391-0.309,0.549-0.504c0.158-0.195,0.287-0.408,0.387-0.638l-1.063-0.428c-0.118,0.264-0.294,0.479-0.532,0.646
		c-0.237,0.168-0.523,0.251-0.857,0.251c-0.217,0-0.419-0.039-0.606-0.115c-0.188-0.078-0.351-0.182-0.488-0.314
		c-0.138-0.131-0.245-0.287-0.321-0.465c-0.077-0.178-0.115-0.367-0.115-0.564c0-0.203,0.038-0.395,0.115-0.573
		c0.076-0.178,0.183-0.334,0.321-0.466c0.137-0.132,0.299-0.236,0.483-0.313c0.185-0.076,0.385-0.115,0.602-0.115
		c0.316,0,0.596,0.078,0.839,0.235s0.423,0.367,0.541,0.631l1.063-0.42c-0.1-0.23-0.229-0.44-0.387-0.63
		c-0.158-0.19-0.343-0.354-0.554-0.492c-0.21-0.138-0.443-0.247-0.699-0.324c-0.255-0.077-0.526-0.117-0.813-0.117
		c-0.375,0-0.725,0.066-1.05,0.2c-0.325,0.132-0.608,0.316-0.849,0.55c-0.24,0.235-0.429,0.508-0.567,0.822
		c-0.138,0.313-0.206,0.65-0.206,1.012c0,0.356,0.068,0.69,0.206,1.004s0.327,0.586,0.567,0.817
		c0.241,0.232,0.523,0.415,0.849,0.551C24.55,36.878,24.9,36.946,25.275,36.946z"/>
	<path id="XMLID_433_" d="M32.161,36.563c0.401-0.254,0.713-0.59,0.936-1.006l-0.976-0.563c-0.123,0.275-0.308,0.496-0.553,0.66
		c-0.246,0.164-0.537,0.246-0.871,0.246c-0.421,0-0.77-0.111-1.045-0.334c-0.276-0.223-0.454-0.515-0.536-0.879H33.3v-0.42
		c0-0.357-0.066-0.687-0.198-0.989s-0.314-0.564-0.549-0.787c-0.234-0.223-0.514-0.396-0.839-0.519
		c-0.325-0.124-0.678-0.186-1.059-0.186c-0.375,0-0.725,0.068-1.05,0.204c-0.326,0.136-0.608,0.319-0.849,0.551
		c-0.24,0.231-0.429,0.505-0.566,0.821c-0.138,0.316-0.207,0.655-0.207,1.017c0,0.356,0.066,0.69,0.198,1.004
		c0.131,0.313,0.316,0.585,0.553,0.817c0.237,0.232,0.523,0.414,0.857,0.546c0.334,0.133,0.703,0.199,1.107,0.199
		C31.271,36.946,31.759,36.819,32.161,36.563z M29.726,33.07c0.261-0.158,0.569-0.237,0.927-0.237c0.369,0,0.679,0.073,0.932,0.219
		c0.251,0.146,0.422,0.36,0.509,0.642h-2.917C29.282,33.437,29.465,33.228,29.726,33.07z"/>
	<path id="XMLID_434_" d="M37.279,34.285c-0.176-0.108-0.371-0.195-0.584-0.26c-0.214-0.064-0.427-0.116-0.638-0.155
		c-0.387-0.079-0.679-0.153-0.879-0.222c-0.199-0.07-0.298-0.186-0.298-0.348c0-0.14,0.067-0.262,0.202-0.369
		c0.135-0.106,0.343-0.16,0.624-0.16c0.247,0,0.463,0.05,0.651,0.151c0.187,0.1,0.333,0.236,0.439,0.408l1.011-0.478
		c-0.2-0.329-0.471-0.588-0.813-0.779s-0.772-0.287-1.288-0.287c-0.305,0-0.582,0.041-0.831,0.122
		c-0.249,0.082-0.461,0.191-0.637,0.331c-0.176,0.14-0.312,0.3-0.409,0.482c-0.097,0.181-0.146,0.37-0.146,0.565
		c0,0.257,0.053,0.471,0.159,0.641c0.105,0.17,0.243,0.31,0.413,0.419c0.17,0.109,0.362,0.194,0.576,0.255
		c0.213,0.062,0.432,0.115,0.655,0.159c0.158,0.033,0.31,0.064,0.457,0.092c0.146,0.028,0.273,0.063,0.382,0.105
		s0.196,0.091,0.264,0.146c0.067,0.056,0.101,0.129,0.101,0.218c0,0.162-0.073,0.302-0.22,0.419
		c-0.146,0.117-0.366,0.175-0.659,0.175c-0.281,0-0.528-0.06-0.739-0.181c-0.21-0.121-0.378-0.294-0.5-0.519l-1.099,0.494
		c0.206,0.4,0.496,0.706,0.871,0.917s0.847,0.317,1.415,0.317c0.37,0,0.686-0.05,0.949-0.151c0.264-0.101,0.482-0.23,0.655-0.39
		c0.172-0.159,0.301-0.332,0.382-0.52c0.083-0.187,0.123-0.367,0.123-0.541c0-0.257-0.054-0.471-0.162-0.642
		C37.597,34.534,37.455,34.394,37.279,34.285z"/>
	<path id="XMLID_435_" d="M41.919,34.285c-0.176-0.108-0.371-0.195-0.584-0.26c-0.214-0.064-0.426-0.116-0.638-0.155
		c-0.386-0.079-0.679-0.153-0.878-0.222c-0.199-0.07-0.299-0.186-0.299-0.348c0-0.14,0.067-0.262,0.202-0.369
		c0.135-0.106,0.343-0.16,0.624-0.16c0.247,0,0.462,0.05,0.65,0.151c0.188,0.1,0.334,0.236,0.439,0.408l1.011-0.478
		c-0.2-0.329-0.47-0.588-0.813-0.779c-0.343-0.191-0.772-0.287-1.288-0.287c-0.305,0-0.582,0.041-0.831,0.122
		c-0.249,0.082-0.461,0.191-0.637,0.331c-0.176,0.14-0.312,0.3-0.409,0.482c-0.097,0.181-0.146,0.37-0.146,0.565
		c0,0.257,0.053,0.471,0.158,0.641s0.243,0.31,0.413,0.419c0.17,0.109,0.362,0.194,0.576,0.255c0.214,0.062,0.432,0.115,0.655,0.159
		c0.157,0.033,0.31,0.064,0.457,0.092c0.146,0.028,0.273,0.063,0.382,0.105c0.108,0.042,0.196,0.091,0.264,0.146
		c0.067,0.056,0.101,0.129,0.101,0.218c0,0.162-0.073,0.302-0.22,0.419c-0.146,0.117-0.366,0.175-0.659,0.175
		c-0.281,0-0.527-0.06-0.739-0.181c-0.21-0.121-0.377-0.294-0.5-0.519l-1.099,0.494c0.205,0.4,0.495,0.706,0.871,0.917
		c0.374,0.211,0.847,0.317,1.415,0.317c0.369,0,0.685-0.05,0.949-0.151s0.481-0.23,0.655-0.39c0.172-0.159,0.3-0.332,0.382-0.52
		c0.083-0.187,0.123-0.367,0.123-0.541c0-0.257-0.054-0.471-0.162-0.642C42.237,34.534,42.095,34.394,41.919,34.285z"/>
	<path id="XMLID_438_" d="M47.399,32.537c-0.243-0.234-0.526-0.417-0.848-0.55s-0.667-0.2-1.037-0.2c-0.369,0-0.716,0.066-1.041,0.2
		c-0.326,0.132-0.608,0.316-0.849,0.55c-0.24,0.235-0.429,0.508-0.566,0.822c-0.138,0.313-0.207,0.65-0.207,1.012
		c0,0.356,0.069,0.69,0.207,1.004c0.137,0.313,0.327,0.587,0.566,0.821c0.241,0.235,0.523,0.418,0.849,0.551
		c0.325,0.133,0.672,0.199,1.041,0.199c0.37,0,0.715-0.066,1.037-0.199s0.605-0.316,0.848-0.551
		c0.243-0.234,0.434-0.508,0.571-0.821s0.207-0.648,0.207-1.004c0-0.362-0.069-0.699-0.207-1.012
		C47.833,33.045,47.642,32.771,47.399,32.537z M46.894,34.936c-0.077,0.179-0.182,0.334-0.316,0.465
		c-0.134,0.133-0.293,0.237-0.475,0.314c-0.182,0.076-0.378,0.115-0.589,0.115s-0.409-0.039-0.593-0.115
		c-0.185-0.078-0.343-0.182-0.474-0.314c-0.132-0.131-0.236-0.287-0.312-0.465c-0.077-0.178-0.114-0.367-0.114-0.564
		c0-0.203,0.038-0.395,0.114-0.573s0.18-0.334,0.312-0.466c0.131-0.132,0.29-0.236,0.474-0.313c0.185-0.076,0.382-0.115,0.593-0.115
		s0.407,0.039,0.589,0.115c0.182,0.077,0.34,0.182,0.475,0.313c0.135,0.132,0.24,0.288,0.316,0.466
		c0.076,0.179,0.114,0.37,0.114,0.573C47.008,34.568,46.97,34.757,46.894,34.936z"/>
	<path id="XMLID_439_" d="M51.191,31.796c-0.638,0-1.078,0.255-1.318,0.764v-0.764h-1.177v5.141h1.187v-2.742
		c0-0.445,0.089-0.766,0.268-0.962c0.178-0.196,0.441-0.294,0.786-0.294c0.17,0,0.309,0.019,0.417,0.057
		c0.108,0.039,0.207,0.087,0.295,0.146l0.448-1.125c-0.117-0.064-0.25-0.117-0.399-0.158C51.547,31.817,51.379,31.796,51.191,31.796
		z"/>
	<path id="XMLID_440_" d="M17.653,28.787c0.353,0,0.661-0.063,0.925-0.187s0.484-0.296,0.661-0.515v0.691h1.265v-5.522H19.23v2.961
		c0,0.474-0.117,0.835-0.35,1.088c-0.233,0.252-0.525,0.378-0.878,0.378c-0.403,0-0.7-0.122-0.892-0.364
		c-0.193-0.243-0.289-0.573-0.289-0.991v-3.072H15.53v3.215c0,0.729,0.19,1.297,0.571,1.705
		C16.482,28.583,16.999,28.787,17.653,28.787z"/>
	<path id="XMLID_444_" d="M21.92,28.059c0.258,0.237,0.549,0.417,0.873,0.542c0.323,0.124,0.652,0.187,0.986,0.187
		c0.365,0,0.705-0.071,1.02-0.212c0.314-0.141,0.573-0.335,0.774-0.582v0.785h1.274v-5.522h-1.274v0.729
		c-0.201-0.228-0.457-0.408-0.765-0.54c-0.308-0.132-0.645-0.198-1.01-0.198c-0.346,0-0.684,0.062-1.015,0.187
		c-0.33,0.124-0.623,0.305-0.877,0.542c-0.256,0.236-0.46,0.526-0.614,0.869c-0.155,0.343-0.232,0.735-0.232,1.179
		c0,0.436,0.079,0.826,0.236,1.169C21.455,27.533,21.662,27.822,21.92,28.059z M22.444,25.373c0.085-0.195,0.203-0.364,0.354-0.506
		c0.151-0.142,0.329-0.254,0.533-0.336c0.205-0.083,0.423-0.124,0.656-0.124c0.239,0,0.459,0.041,0.661,0.124
		s0.375,0.196,0.52,0.341s0.259,0.315,0.344,0.51c0.084,0.195,0.127,0.402,0.127,0.62c0,0.225-0.042,0.435-0.127,0.63
		c-0.085,0.195-0.2,0.366-0.344,0.514c-0.145,0.148-0.318,0.263-0.52,0.346c-0.201,0.083-0.422,0.124-0.661,0.124
		c-0.233,0-0.452-0.041-0.656-0.124c-0.205-0.083-0.382-0.197-0.533-0.342c-0.151-0.145-0.269-0.316-0.354-0.514
		c-0.085-0.198-0.127-0.41-0.127-0.635C22.316,25.778,22.359,25.568,22.444,25.373z"/>
	<path id="XMLID_445_" d="M28.896,25.816c0-0.474,0.125-0.836,0.373-1.088c0.249-0.252,0.556-0.378,0.921-0.378
		c0.416,0,0.727,0.122,0.935,0.364c0.207,0.243,0.312,0.573,0.312,0.991v3.071h1.293v-3.215c0-0.729-0.194-1.297-0.581-1.705
		c-0.386-0.408-0.923-0.612-1.609-0.612c-0.359,0-0.678,0.07-0.958,0.209c-0.28,0.14-0.511,0.324-0.694,0.554v-0.754h-1.265v5.522
		h1.274L28.896,25.816L28.896,25.816z"/>
	<path id="XMLID_446_" d="M33.832,26.474c0,0.441,0.036,0.807,0.109,1.1c0.072,0.293,0.193,0.529,0.363,0.708
		s0.398,0.307,0.685,0.382c0.287,0.076,0.644,0.113,1.071,0.113h0.18v-1.198c-0.246,0-0.443-0.013-0.59-0.038
		c-0.148-0.025-0.262-0.077-0.341-0.156c-0.078-0.079-0.13-0.192-0.155-0.34c-0.025-0.148-0.038-0.341-0.038-0.581v-2.067h1.124
		v-1.142h-1.124v-1.718l-1.284,0.878v0.84h-0.944v1.142h0.944C33.832,24.397,33.832,26.474,33.832,26.474z"/>
	<path id="XMLID_447_" d="M38.977,28.787c0.353,0,0.661-0.063,0.925-0.187s0.484-0.296,0.661-0.515v0.691h1.265v-5.522h-1.274v2.961
		c0,0.474-0.116,0.835-0.349,1.088c-0.233,0.252-0.526,0.378-0.878,0.378c-0.402,0-0.7-0.122-0.892-0.364
		c-0.192-0.243-0.288-0.573-0.288-0.991v-3.072h-1.293v3.215c0,0.729,0.19,1.297,0.571,1.705
		C37.805,28.583,38.322,28.787,38.977,28.787z"/>
	<path id="XMLID_448_" d="M43.885,25.789c0-0.479,0.118-0.839,0.354-1.079s0.533-0.359,0.892-0.359c0.384,0,0.673,0.111,0.868,0.332
		c0.196,0.221,0.292,0.525,0.292,0.913v3.182h1.293v-3.016c0-0.473,0.116-0.827,0.349-1.06s0.522-0.351,0.869-0.351
		c0.396,0,0.695,0.115,0.897,0.345c0.201,0.231,0.302,0.543,0.302,0.937v3.145h1.303v-3.261c0-0.704-0.188-1.258-0.566-1.663
		c-0.377-0.404-0.938-0.607-1.68-0.607c-0.396,0-0.75,0.085-1.062,0.256c-0.312,0.17-0.562,0.398-0.751,0.683
		c-0.163-0.297-0.395-0.528-0.693-0.693c-0.299-0.164-0.666-0.246-1.1-0.246c-0.34,0-0.644,0.065-0.911,0.194
		c-0.268,0.129-0.49,0.306-0.666,0.528v-0.713H42.61v5.522h1.274v-2.989H43.885z"/>
	<path id="XMLID_451_" d="M11.396,28.897c0.713,0,1.375-0.214,1.931-0.577l0.431,0.456h1.706l-1.236-1.307
		c0.446-0.594,0.72-1.323,0.72-2.123c0-1.961-1.59-3.551-3.552-3.551c-1.961,0-3.551,1.59-3.551,3.551S9.435,28.897,11.396,28.897z
		 M11.396,23.021c1.282,0,2.325,1.043,2.325,2.325c0,0.447-0.133,0.86-0.352,1.215l-1.057-1.118h-1.706l1.852,1.959
		c-0.32,0.166-0.678,0.269-1.063,0.269c-1.282,0-2.325-1.042-2.325-2.325C9.071,24.064,10.114,23.021,11.396,23.021z"/>
	<polygon id="XMLID_452_" points="44.596,12.453 43.779,14.807 45.412,14.807 	"/>
	<path id="XMLID_455_" d="M41.854,19.456H50c0.718,0,1.305-0.587,1.305-1.305v-8.146C51.305,9.288,50.717,8.7,50,8.7h-8.146
		c-0.718,0-1.305,0.587-1.305,1.305v8.146C40.549,18.869,41.136,19.456,41.854,19.456z M48.335,10.813h1.156v6.205h-1.156V10.813z
		 M44.009,10.813h1.165l2.209,6.205h-1.207l-0.383-1.104h-2.405l-0.383,1.104h-1.207L44.009,10.813z"/>
	<polygon id="XMLID_457_" points="34.59,42.392 31.389,45.513 31.389,45.291 31.389,42.392 30.117,42.392 30.117,51.081 
		31.389,51.081 31.389,47.896 31.389,47.435 34.59,51.081 36.383,51.081 32.273,46.4 36.383,42.392 	"/>
	<path id="XMLID_460_" d="M28.094,46.399c0.492-0.438,0.803-1.075,0.803-1.783c0-1.316-1.071-2.387-2.387-2.387
		s-2.387,1.07-2.387,2.387c0,0.708,0.311,1.346,0.803,1.783c-0.658,0.487-1.085,1.268-1.085,2.147c0,1.472,1.197,2.669,2.669,2.669
		s2.669-1.197,2.669-2.669C29.18,47.667,28.752,46.886,28.094,46.399z M26.511,43.502c0.614,0,1.113,0.5,1.113,1.114
		s-0.5,1.113-1.113,1.113c-0.614,0-1.114-0.5-1.114-1.113C25.397,44.002,25.896,43.502,26.511,43.502z M26.511,49.942
		c-0.77,0-1.396-0.626-1.396-1.396s0.626-1.396,1.396-1.396s1.396,0.626,1.396,1.396S27.28,49.942,26.511,49.942z"/>
</g>
</svg>
