<?xml version="1.0" encoding="utf-8"?>
<!-- Generator: Adobe Illustrator 22.1.0, SVG Export Plug-In . SVG Version: 6.00 Build 0)  -->
<svg version="1.1" id="Layer_1" xmlns="http://www.w3.org/2000/svg" xmlns:xlink="http://www.w3.org/1999/xlink" x="0px" y="0px"
	 viewBox="0 0 60 60" style="enable-background:new 0 0 60 60;" xml:space="preserve">
<g>
	<path d="M57,12.25H36.938l-6.59-3.464c-0.219-0.114-0.479-0.115-0.698,0l-6.59,3.464H3c-0.414,0-0.75,0.336-0.75,0.75v34
		c0,0.414,0.336,0.75,0.75,0.75h20.158c0.024,0,0.044-0.011,0.067-0.013l6.426,3.378C29.76,51.172,29.88,51.2,30,51.2
		c0.12,0,0.239-0.028,0.349-0.086l6.4-3.364H57c0.414,0,0.75-0.336,0.75-0.75V13C57.75,12.586,57.414,12.25,57,12.25z M30.75,49.208
		V10.692l18,9.462v19.594L30.75,49.208z M11.25,39.747V20.153l18-9.462v38.517L11.25,39.747z M3.75,46.25v-32.5h16.457
		l-10.057,5.286C9.904,19.166,9.75,19.421,9.75,19.7v20.5c0,0.278,0.154,0.534,0.401,0.664l10.246,5.386H3.75z M56.25,46.25H39.603
		l10.246-5.386c0.247-0.13,0.401-0.386,0.401-0.664V19.7c0-0.279-0.154-0.534-0.401-0.664L39.792,13.75H56.25V46.25z"/>
	<polygon points="41.7,22.7 37.6,27.2 37.6,21 34.8,19.9 34.8,40.1 37.6,39 37.6,31.8 41.8,37.3 44.2,36.3 39.1,29.4 44.2,23.7 	"/>
	<path d="M23.3,29.2c1.1-1.1,1.8-2.6,1.7-4.3c-0.2-3.1-3-5-5.5-4.3c-2.2,0.6-3.6,3-3.4,5.4c0.1,1.3,0.5,2.5,1.3,3.3
		c-1,0.9-1.7,2.5-1.8,4.1c0,2.9,1.4,5.3,3.8,6c2.9,0.8,6.1-1.4,6.3-5C25.9,32.2,24.8,30.3,23.3,29.2z M19.9,23.2
		c1.1-0.3,2.2,0.6,2.4,2c0.1,1.4-0.8,2.6-1.9,2.7c-1.1,0.1-2-0.8-2.1-2C18.1,24.6,18.8,23.4,19.9,23.2z M22.8,34.3
		c-0.2,1.8-1.7,2.9-3.1,2.5c-1.2-0.4-2-1.9-1.8-3.4c0.2-1.5,1.2-2.6,2.5-2.5C21.8,31,23,32.5,22.8,34.3z"/>
</g>
</svg>
